<svg id="p_logo" xmlns="http://www.w3.org/2000/svg" width="28.398" height="36" viewBox="0 0 28.398 36">
  <path id="Path_1" data-name="Path 1" d="M0,5.475A1.53,1.53,0,0,1,1.525,3.95H15.053l9.392,9.391v13.53A1.534,1.534,0,0,1,22.92,28.4H14.747L7.373,21.024v-9.7h9.7v9.7h-9.7V34.475A1.531,1.531,0,0,1,5.848,36H1.531A1.53,1.53,0,0,1,.007,34.475Z" fill="#e9281b" fill-rule="evenodd"/>
  <path id="Path_2" data-name="Path 2" d="M20.793,3.979V1.526A1.529,1.529,0,0,1,22.318,0h4.554A1.529,1.529,0,0,1,28.4,1.525V3.307h0V6.079A1.53,1.53,0,0,1,26.872,7.6H22.319a1.531,1.531,0,0,1-1.526-1.525Z" fill="#e9281b" fill-rule="evenodd"/>
</svg>
